<?xml version="1.0" encoding="utf-8"?>
<!-- Generator: Adobe Illustrator 14.0.0, SVG Export Plug-In . SVG Version: 6.00 Build 43363)  -->
<!DOCTYPE svg PUBLIC "-//W3C//DTD SVG 1.0//EN" "http://www.w3.org/TR/2001/REC-SVG-20010904/DTD/svg10.dtd">
<svg version="1.0" id="Capa_1" xmlns="http://www.w3.org/2000/svg" xmlns:xlink="http://www.w3.org/1999/xlink" x="0px" y="0px"
	 width="539.802px" height="133.366px" viewBox="0 0 539.802 133.366" enable-background="new 0 0 539.802 133.366"
	 xml:space="preserve">
<g>
	<defs>
		<rect id="SVGID_1_" width="539.802" height="133.366"/>
	</defs>
	<clipPath id="SVGID_2_">
		<use xlink:href="#SVGID_1_"  overflow="visible"/>
	</clipPath>
	<path clip-path="url(#SVGID_2_)" d="M150.833,19.404c2.374,0.055,4.968,0.165,7.509,0.165c2.594,0,5.134-0.11,7.784-0.165v1.757
		c-5.19,0.439-5.19,0.768-5.244,8.288v11.033c0,2.91,0,6.148,1.214,9.113c2.208,5.324,7.178,6.916,10.545,6.916
		c2.982,0,5.798-1.098,7.951-3.403c3.258-3.459,3.975-7.466,3.975-22.012c0-9.222,0-9.496-5.576-9.935v-1.757
		c2.209,0.055,4.473,0.11,6.68,0.11c1.988,0,4.032-0.055,6.019-0.11v1.757c-2.098,0.109-3.534,0.274-4.142,1.811
		c-0.22,0.549-0.33,0.988-0.496,3.074c-0.276,3.678-0.276,5.764-0.276,6.422c-0.442,11.637-0.607,14.656-1.987,17.95
		c-2.872,6.641-9.332,8.508-14.19,8.508c-4.638,0-8.503-1.647-11.043-4.007c-4.031-3.843-4.085-8.728-4.14-12.405V26.869
		c-0.056-4.83-0.443-5.269-4.583-5.708V19.404z"/>
	<path clip-path="url(#SVGID_2_)" d="M194.675,19.404c1.712,0.055,3.424,0.11,5.135,0.11c1.712,0,3.368-0.055,5.08-0.11
		c1.546,2.306,2.374,3.623,5.189,7.026c3.92,4.776,14.797,17.675,18.994,22.616c0.11-15.425,0.054-18.719,0-21.353
		c-0.166-6.258-0.387-6.368-6.461-6.532v-1.757c2.264,0.055,4.528,0.11,6.847,0.11c2.208,0,4.141-0.055,6.626-0.11v1.757
		c-3.645,0.274-4.473,0.384-4.638,5.05c-0.111,2.799-0.497,27.72-0.552,32.495h-0.884l-27.717-33.044
		c0,4.226-0.11,23.658,0.167,26.677c0.276,3.403,1.877,3.788,6.459,4.062v1.756c-2.429-0.054-4.804-0.109-7.233-0.109
		c-2.208,0-4.527,0.055-6.791,0.109V56.4c1.712,0,3.423-0.055,4.252-1.153c0.552-0.768,0.606-1.592,0.828-6.422l0.33-25.086
		c-2.042-1.701-3.146-2.195-5.631-2.579V19.404z"/>
	<path clip-path="url(#SVGID_2_)" d="M239.319,19.404c2.485,0.22,5.024,0.384,7.564,0.384c2.429,0,4.859-0.164,7.343-0.384v1.757
		c-4.693,0.494-4.693,0.988-4.693,7.904v19.596c0,6.697,0.055,7.301,4.693,7.74v1.756c-2.484-0.109-4.803-0.219-7.178-0.219
		c-2.594,0-5.19,0.11-7.729,0.219V56.4c4.527-0.494,4.638-1.043,4.692-5.928c0.056-2.141,0.056-4.337,0.056-6.533V33.895
		c-0.056-6.751-0.11-8.343-0.276-9.661c-0.331-2.415-1.105-2.744-4.472-3.073V19.404z"/>
	<path clip-path="url(#SVGID_2_)" d="M257.265,19.349c2.595,0.11,5.411,0.165,8.116,0.165c2.761,0,5.577-0.055,8.337-0.165v1.811
		c-3.423,0.22-5.245,0.33-5.245,2.58c0,1.592,4.914,15.37,5.852,17.95c1.548,4.337,1.712,4.776,3.094,9.331
		c3.754-9.551,6.294-16.028,8.392-21.956c0.441-1.263,1.437-4.062,1.437-5.05c0-2.635-3.094-2.8-5.19-2.855v-1.811
		c2.153,0.11,4.251,0.165,6.404,0.165c2.208,0,4.361-0.055,6.515-0.165v1.811c-4.086,0.714-4.472,1.812-7.453,9.332
		c-3.7,9.551-7.563,19.048-11.374,28.544h-1.215l-11.594-31.947c-1.657-4.446-2.54-5.489-6.074-5.929V19.349z"/>
	<path clip-path="url(#SVGID_2_)" d="M298.292,19.404h28.655c1.821,4.336,2.318,5.489,4.306,9.551l-1.049,0.769
		c-4.472-4.941-4.472-4.941-5.466-5.819c-2.374-2.195-4.195-2.635-10.602-2.744h-5.686v15.753h5.466
		c5.189,0.055,6.128-0.823,7.397-6.477h1.437c-0.111,2.58-0.166,5.215-0.166,7.85c0,2.525,0.055,5.05,0.166,7.52h-1.437
		c-1.27-6.258-2.483-6.587-8.612-6.587h-4.251v9.332c0.055,7.52,0.055,7.739,7.619,7.849h2.926
		c4.583-0.055,5.521-0.055,12.257-9.332l1.215,0.659c-1.546,4.666-1.877,5.818-3.146,10.429h-31.029V56.4
		c4.196-0.329,4.416-1.372,4.472-3.897c0.111-2.635,0.165-5.27,0.165-10.759v-10.32c0-1.701,0-7.3-0.44-8.343
		c-0.497-1.427-1.547-1.592-4.196-1.921V19.404z"/>
	<path clip-path="url(#SVGID_2_)" d="M335.26,19.403c2.374,0,4.803,0.055,7.178,0.055c0.993,0,5.907-0.055,7.012-0.055
		c2.761,0,6.294,0.055,8.613,0.934c3.865,1.372,5.907,5.05,5.907,8.563c0,1.207-0.276,3.183-1.325,5.105
		c-1.877,3.513-4.803,4.72-6.68,5.544c3.478,4.446,6.955,8.892,10.489,13.283c2.208,2.8,2.927,3.239,5.797,3.568v1.757
		c-1.545-0.055-3.035-0.11-4.582-0.11c-1.436,0-2.65,0.055-4.196,0.11c-1.988-2.855-2.54-3.513-4.914-6.587
		c-2.87-3.623-5.742-7.3-8.612-10.978c-0.772,0-1.546,0.055-2.32,0.055c-0.772,0-1.489-0.055-2.263-0.055
		c0,6.916,0.055,9.551,0.11,11.307c0.166,3.952,0.994,4.007,5.853,4.501v1.757c-2.705-0.11-5.411-0.22-8.116-0.22
		c-2.596,0-4.913,0.11-7.95,0.22V56.4c4.582-0.439,4.582-0.494,4.638-8.398V32.193c0-1.537,0-7.355-0.442-9.002
		c-0.386-1.482-1.655-1.647-4.195-2.031V19.403z M345.364,21.16v17.51c0.828,0.055,1.602,0.11,2.374,0.11
		c4.969,0,6.791-1.262,8.062-2.525c1.546-1.537,2.483-3.733,2.483-6.532c0-2.58-0.828-4.94-2.374-6.532
		c-1.988-1.976-3.809-1.976-7.287-2.031H345.364z"/>
	<path clip-path="url(#SVGID_2_)" d="M375.936,46.301c0.442,2.031,0.828,3.952,2.209,5.983c2.098,3.074,5.577,4.83,8.834,4.83
		c3.258,0,8.116-2.14,8.116-7.684c0-1.867-0.663-4.282-3.202-6.148c-1.547-1.098-2.54-1.427-7.232-2.964
		c-2.982-0.988-9.165-3.074-9.165-10.485c0-6.202,4.638-11.032,11.483-11.032c3.589,0,5.797,1.262,7.84,2.415l2.265-1.702
		l1.27,11.253l-1.27,0.274c-0.719-2.689-2.871-10.374-9.939-10.374c-4.747,0-7.177,3.238-7.177,6.532
		c0,1.811,0.606,3.623,1.932,4.995c1.603,1.701,3.479,2.305,7.509,3.568c3.865,1.207,10.436,3.239,10.436,11.472
		c0,7.136-5.908,11.692-12.976,11.692c-4.803,0-7.287-1.702-8.889-2.745l-3.037,1.977c-0.055-5.654-0.109-6.972-0.44-11.747
		L375.936,46.301z"/>
	<path clip-path="url(#SVGID_2_)" d="M403.491,19.404c2.484,0.22,5.023,0.384,7.563,0.384c2.429,0,4.859-0.164,7.343-0.384v1.757
		c-4.692,0.494-4.692,0.988-4.692,7.904v19.596c0,6.697,0.055,7.301,4.692,7.74v1.756c-2.483-0.109-4.803-0.219-7.178-0.219
		c-2.594,0-5.19,0.11-7.729,0.219V56.4c4.526-0.494,4.638-1.043,4.691-5.928c0.057-2.141,0.057-4.337,0.057-6.533V33.895
		c-0.057-6.751-0.11-8.343-0.276-9.661c-0.332-2.415-1.105-2.744-4.472-3.073V19.404z"/>
	<path clip-path="url(#SVGID_2_)" d="M422.125,19.403c1.822,0,3.589,0.055,5.411,0.055c0.884,0,3.368-0.055,5.963-0.11
		c2.54-0.054,5.135-0.109,6.074-0.109c4.637,0,12.698,0.219,18.109,7.355c2.704,3.513,3.92,7.85,3.92,12.021
		c0,5.16-1.877,11.198-7.179,15.206c-5.741,4.336-12.863,4.336-16.122,4.336c-1.269,0-7.618-0.055-9.054-0.055
		c-2.32,0-4.473,0-7.123,0.055v-1.812c4.638-0.494,4.638-0.713,4.694-7.245c0-1.537,0.054-3.074,0.054-4.611V31.315
		c0-1.702-0.054-7.136-0.44-8.234c-0.553-1.427-1.713-1.591-4.308-1.866V19.403z M432.45,48.496c0,1.592,0.055,4.226,0.111,4.775
		c0.165,1.538,0.497,3.074,6.017,3.074c10.325,0,16.564-7.739,16.564-18.223c0-3.129-0.662-6.642-2.43-9.552
		c-4.417-7.52-12.036-7.52-15.072-7.52c-1.381,0-3.479,0-5.19,0.055V48.496z"/>
	<path clip-path="url(#SVGID_2_)" d="M458.056,56.4c4.858-0.384,5.576-1.372,7.232-5.873c3.534-9.661,7.013-19.322,10.547-28.983
		c-0.332-0.549-0.443-0.768-0.884-1.317c3.533-0.714,4.582-1.318,6.349-2.58c1.38,4.501,1.656,5.379,2.706,8.453l7.343,22.78
		c1.933,6.038,2.595,7.026,6.791,7.52v1.757c-2.595-0.055-5.411-0.11-8.117-0.11c-2.705,0-5.409,0.055-8.115,0.11V56.4
		c2.65-0.165,4.804-0.384,4.804-2.635c0-1.646-2.319-8.947-3.092-11.362h-13.361c-0.718,2.196-1.436,4.391-2.098,6.532
		c-0.497,1.482-1.16,3.623-1.16,4.446c0,2.745,3.424,2.909,5.354,3.019v1.757c-2.317-0.055-4.747-0.11-7.066-0.11
		c-2.43,0-4.804,0.055-7.232,0.11V56.4z M482.792,39.934c-1.822-5.489-3.92-12.131-5.798-16.413l-5.853,16.413H482.792z"/>
	<path clip-path="url(#SVGID_2_)" d="M500.325,19.403c1.822,0,3.589,0.055,5.411,0.055c0.884,0,3.368-0.055,5.963-0.11
		c2.54-0.054,5.136-0.109,6.074-0.109c4.637,0,12.698,0.219,18.109,7.355c2.705,3.513,3.92,7.85,3.92,12.021
		c0,5.16-1.877,11.198-7.179,15.206c-5.741,4.336-12.863,4.336-16.121,4.336c-1.271,0-7.619-0.055-9.055-0.055
		c-2.319,0-4.473,0-7.123,0.055v-1.812c4.639-0.494,4.639-0.713,4.694-7.245c0-1.537,0.054-3.074,0.054-4.611V31.315
		c0-1.702-0.054-7.136-0.44-8.234c-0.553-1.427-1.712-1.591-4.308-1.866V19.403z M510.65,48.496c0,1.592,0.055,4.226,0.111,4.775
		c0.165,1.538,0.497,3.074,6.017,3.074c10.325,0,16.564-7.739,16.564-18.223c0-3.129-0.662-6.642-2.43-9.552
		c-4.417-7.52-12.035-7.52-15.072-7.52c-1.381,0-3.479,0-5.19,0.055V48.496z"/>
	<path clip-path="url(#SVGID_2_)" d="M151.55,75.05c1.822,0,3.589,0.055,5.411,0.055c0.884,0,3.368-0.055,5.963-0.11
		c2.54-0.054,5.135-0.108,6.074-0.108c4.637,0,12.698,0.219,18.109,7.354c2.705,3.514,3.92,7.851,3.92,12.022
		c0,5.159-1.877,11.197-7.178,15.205c-5.742,4.336-12.864,4.336-16.122,4.336c-1.269,0-7.619-0.055-9.054-0.055
		c-2.32,0-4.473,0-7.123,0.055v-1.813c4.638-0.493,4.638-0.713,4.694-7.244c0-1.537,0.054-3.074,0.054-4.611V86.962
		c0-1.702-0.054-7.137-0.441-8.234c-0.552-1.427-1.712-1.592-4.307-1.866V75.05z M161.875,104.143c0,1.592,0.055,4.226,0.111,4.775
		c0.165,1.538,0.497,3.073,6.017,3.073c10.325,0,16.564-7.738,16.564-18.223c0-3.129-0.662-6.642-2.429-9.552
		c-4.417-7.52-12.036-7.52-15.073-7.52c-1.38,0-3.478,0-5.19,0.055V104.143z"/>
	<path clip-path="url(#SVGID_2_)" d="M193.571,75.05h28.655c1.822,4.336,2.319,5.489,4.306,9.551l-1.049,0.77
		c-4.471-4.941-4.471-4.941-5.466-5.819c-2.374-2.194-4.195-2.635-10.601-2.744h-5.686V92.56h5.466
		c5.19,0.056,6.128-0.822,7.398-6.477h1.436c-0.111,2.58-0.166,5.215-0.166,7.85c0,2.525,0.055,5.051,0.166,7.521h-1.436
		c-1.27-6.258-2.484-6.587-8.613-6.587h-4.251v9.332c0.055,7.52,0.055,7.738,7.619,7.849h2.926
		c4.583-0.055,5.521-0.055,12.257-9.332l1.215,0.659c-1.546,4.666-1.877,5.819-3.147,10.429h-31.029v-1.756
		c4.196-0.329,4.416-1.372,4.472-3.896c0.111-2.636,0.165-5.271,0.165-10.76V87.071c0-1.701,0-7.3-0.441-8.344
		c-0.497-1.427-1.546-1.592-4.196-1.921V75.05z"/>
	<path clip-path="url(#SVGID_2_)" d="M245.118,74.995c2.374,0.11,5.024,0.165,7.564,0.165c2.595,0,5.19-0.055,7.785-0.165v1.811
		c-3.147,0.33-4.196,0.44-4.804,1.867c-0.442,1.098-0.442,3.623-0.552,8.837v11.034c0,3.787,0,6.861,0.166,9.331
		c0.055,0.878,0.11,2.305,0.939,3.02c1.545,1.427,8.281,1.208,10.269,1.043c3.147-0.22,6.46-0.439,11.318-10.924l1.877,0.604
		c-1.767,5.379-2.207,6.916-3.699,12.185h-30.863v-1.811c2.981-0.329,4.196-0.549,4.361-2.909c0.055-1.263,0.111-2.361,0.276-9.387
		V85.37c0-1.373-0.054-5.545-0.386-6.532c-0.497-1.482-1.436-1.646-4.251-2.032V74.995z"/>
	<path clip-path="url(#SVGID_2_)" d="M280.734,75.05c2.484,0.22,5.023,0.384,7.563,0.384c2.429,0,4.859-0.164,7.343-0.384v1.757
		c-4.692,0.494-4.692,0.988-4.692,7.904v19.596c0,6.697,0.055,7.302,4.692,7.74v1.756c-2.483-0.108-4.803-0.219-7.178-0.219
		c-2.594,0-5.19,0.11-7.729,0.219v-1.756c4.526-0.494,4.638-1.043,4.691-5.929c0.057-2.141,0.057-4.336,0.057-6.532V89.541
		c-0.057-6.751-0.11-8.343-0.276-9.661c-0.332-2.415-1.105-2.744-4.472-3.073V75.05z"/>
	<path clip-path="url(#SVGID_2_)" d="M300.997,75.05c1.823,0.056,3.7,0.11,5.522,0.11c1.821,0,3.644-0.055,5.466-0.11l12.919,31.068
		l13.748-31.068c1.767,0,3.534,0.056,5.356,0.056c1.82,0,3.644-0.056,5.466-0.056v1.757c-4.583,0.494-4.693,0.988-4.693,5.544
		l0.11,23.549c0.109,4.831,0.109,5.653,4.583,6.147v1.756c-2.54-0.054-5.079-0.108-7.619-0.108c-2.319,0-4.528,0.055-7.399,0.108
		v-1.756c4.307-0.273,4.914-0.714,4.97-4.775V78.234l-16.012,36.009h-0.938l-15.185-35.954l-0.331,25.414
		c-0.055,6.587-0.055,7.795,4.693,8.344v1.756c-1.932-0.054-3.919-0.108-5.852-0.108c-1.988,0-3.425,0.055-5.908,0.108v-1.756
		c4.638-0.438,4.692-1.646,4.857-8.783l0.498-21.9c-0.055-3.788-0.275-4.117-4.252-4.557V75.05z"/>
	<path clip-path="url(#SVGID_2_)" d="M351.881,112.047c4.857-0.385,5.575-1.373,7.231-5.874c3.534-9.66,7.013-19.321,10.547-28.982
		c-0.332-0.548-0.442-0.769-0.884-1.317c3.534-0.713,4.582-1.316,6.349-2.58c1.381,4.501,1.656,5.38,2.706,8.454l7.344,22.779
		c1.932,6.038,2.595,7.027,6.791,7.521v1.757c-2.596-0.056-5.411-0.11-8.117-0.11c-2.705,0-5.41,0.055-8.116,0.11v-1.757
		c2.65-0.165,4.804-0.385,4.804-2.635c0-1.646-2.318-8.948-3.092-11.363h-13.361c-0.718,2.196-1.436,4.393-2.098,6.532
		c-0.497,1.483-1.16,3.623-1.16,4.447c0,2.744,3.423,2.909,5.355,3.019v1.757c-2.318-0.056-4.747-0.11-7.067-0.11
		c-2.429,0-4.803,0.055-7.231,0.11V112.047z M376.616,95.579c-1.821-5.489-3.92-12.131-5.798-16.412l-5.852,16.412H376.616z"/>
	<polygon clip-path="url(#SVGID_2_)" fill="#F37021" points="48.879,23.699 66.688,0 84.494,23.699 66.688,47.396 	"/>
	<polygon clip-path="url(#SVGID_2_)" fill="#F37021" points="84.495,23.699 113.843,19.532 109.676,48.879 80.328,53.046 	"/>
	<polygon clip-path="url(#SVGID_2_)" fill="#F37021" points="109.667,48.877 133.365,66.683 109.667,84.487 85.969,66.683 	"/>
	<polygon clip-path="url(#SVGID_2_)" fill="#F37021" points="109.666,84.487 113.833,113.835 84.485,109.668 80.318,80.32 	"/>
	<polygon clip-path="url(#SVGID_2_)" fill="#F37021" points="84.486,109.668 66.68,133.366 48.875,109.668 66.68,85.97 	"/>
	<polygon clip-path="url(#SVGID_2_)" fill="#F37021" points="48.879,109.668 19.531,113.835 23.698,84.487 53.046,80.32 	"/>
	<polygon clip-path="url(#SVGID_2_)" fill="#F37021" points="23.698,84.488 0,66.682 23.698,48.877 47.396,66.682 	"/>
	<polygon clip-path="url(#SVGID_2_)" fill="#F37021" points="23.698,48.879 19.531,19.532 48.879,23.699 53.046,53.046 	"/>
</g>
</svg>
